<svg width="48" height="56" viewBox="0 0 48 56" fill="none" xmlns="http://www.w3.org/2000/svg">
<path d="M24.3839 0.610915L22.8247 1.86071C22.8247 1.86071 17.2665 6.10377 11.7563 12.2831C6.24608 18.4625 0.524624 26.6208 0.491296 35.1936C0.467292 41.3681 3.13021 46.524 7.46491 50.0119C11.5322 53.2807 16.9837 55.0636 22.913 55.3047C23.3108 55.3236 23.6991 55.3775 24.0969 55.379C24.4947 55.3806 24.8835 55.3298 25.2814 55.3139C31.2124 55.1189 36.6776 53.3785 40.7702 50.1413C45.1318 46.6873 47.8348 41.5523 47.8588 35.3777C47.8888 27.6596 42.2026 19.5965 36.7693 13.1478C31.3359 6.69919 25.9329 1.94256 25.9329 1.94256L24.3839 0.610915ZM24.2117 6.81975C25.4379 7.92339 28.6559 10.6918 33.0578 15.9242C38.2333 22.0753 43.1432 29.9086 43.122 35.3593C43.1026 40.3478 41.0341 44.1247 37.6747 46.7804C36.8581 47.4226 35.9676 48.0121 35.0035 48.5142C35.5915 47.1996 35.9763 45.7708 35.9822 44.2621C36.0364 30.3083 28.1503 21.7658 28.1503 21.7658L23.8752 17.2141L23.9997 23.2846C23.9997 23.2846 23.9979 26.1277 23.6079 28.8646C23.4083 30.2331 23.1347 31.5925 22.7802 32.3499C22.6776 32.5675 22.6312 32.5935 22.5568 32.6979C22.3074 32.6097 21.5594 32.2579 20.8589 31.575C20.0662 30.8044 19.5326 30.0349 19.5326 30.0349L17.2513 26.6771L15.4609 30.2981C15.4609 30.2981 12.3292 36.26 12.2984 44.17C12.2926 45.6788 12.6663 47.1105 13.2441 48.4296C12.2839 47.9201 11.398 47.3236 10.5864 46.6751C7.24776 43.9934 5.20865 40.2005 5.22804 35.212C5.25371 28.6101 10.2514 20.9898 15.4458 15.158C19.8502 10.2215 22.9681 7.80914 24.2117 6.81975ZM28.1169 30.3473C29.723 33.6676 31.2685 38.3046 31.2454 44.2437C31.2311 47.9414 28.0369 50.9291 24.1143 50.9138C20.1917 50.8986 17.0208 47.8862 17.0352 44.1884C17.049 40.6302 17.7916 37.6243 18.4753 35.4728C19.5358 36.3752 20.8366 37.296 22.7609 37.3035C23.8896 37.3079 24.9647 36.8237 25.6517 36.1984C26.3388 35.5731 26.7302 34.8334 27.0661 34.1108C27.6073 32.9355 27.8899 31.6285 28.1169 30.3473Z" fill="#D22701"/>
</svg>
