<svg width="52" height="48" viewBox="0 0 52 48" fill="none" xmlns="http://www.w3.org/2000/svg">
<path d="M24.7143 25.1823H26.7143V23.1823H24.7143V25.1823ZM17 25.1823H15V27.1823H17V25.1823ZM17 22.6182V20.6182H15V22.6182H17ZM24.7143 22.6182V24.6182H26.7143V22.6182H24.7143ZM24.7143 14.9259V12.9259H22.7143V14.9259H24.7143ZM27.2857 14.9259H29.2857V12.9259H27.2857V14.9259ZM27.2857 22.6182H25.2857V24.6182H27.2857V22.6182ZM35 22.6182H37V20.6182H35V22.6182ZM35 25.1823V27.1823H37V25.1823H35ZM27.2857 25.1823V23.1823H25.2857V25.1823H27.2857ZM27.2857 32.8746V34.8746H29.2857V32.8746H27.2857ZM24.7143 32.8746H22.7143V34.8746H24.7143V32.8746ZM2.58131 11.182L4.36226 12.0921L4.36229 12.092L2.58131 11.182ZM4.91205 8.8579L5.81794 10.641L5.818 10.641L4.91205 8.8579ZM13.9887 8.26097L13.7618 6.27389L13.7616 6.27391L13.9887 8.26097ZM15.9192 7.07128L17.5932 8.16563L17.5932 8.16558L15.9192 7.07128ZM16.2222 6.50553L14.4344 5.60903L14.4343 5.60913L16.2222 6.50553ZM16.8283 5.37407L18.5023 6.4685L18.5024 6.46843L16.8283 5.37407ZM20.6893 2.99465L20.9163 4.98174L20.9163 4.98173L20.6893 2.99465ZM31.3107 2.99465L31.0837 4.98173L31.0837 4.98173L31.3107 2.99465ZM35.1717 5.37407L36.8461 4.28018L36.8457 4.27967L35.1717 5.37407ZM35.7779 6.50553L37.5662 5.6101L37.5655 5.60867L35.7779 6.50553ZM36.0808 7.07128L37.7546 5.97663L37.7544 5.97623L36.0808 7.07128ZM38.0112 8.26097L37.7843 10.2481L37.7845 10.2481L38.0112 8.26097ZM47.088 8.8579L46.182 10.6409L46.1821 10.641L47.088 8.8579ZM49.4187 11.182L47.6376 12.0919L47.6377 12.0921L49.4187 11.182ZM49.4187 42.6015L47.6377 41.6914L47.6376 41.6916L49.4187 42.6015ZM47.088 44.9256L46.1822 43.1424L46.182 43.1425L47.088 44.9256ZM4.91205 44.9256L5.81803 43.1425L5.81779 43.1424L4.91205 44.9256ZM2.58131 42.6015L4.36226 41.6915L4.36224 41.6914L2.58131 42.6015ZM24.7143 23.1823H17V27.1823H24.7143V23.1823ZM19 25.1823V22.6182H15V25.1823H19ZM17 24.6182H24.7143V20.6182H17V24.6182ZM26.7143 22.6182V14.9259H22.7143V22.6182H26.7143ZM24.7143 16.9259H27.2857V12.9259H24.7143V16.9259ZM25.2857 14.9259V22.6182H29.2857V14.9259H25.2857ZM27.2857 24.6182H35V20.6182H27.2857V24.6182ZM33 22.6182V25.1823H37V22.6182H33ZM35 23.1823H27.2857V27.1823H35V23.1823ZM25.2857 25.1823V32.8746H29.2857V25.1823H25.2857ZM27.2857 30.8746H24.7143V34.8746H27.2857V30.8746ZM26.7143 32.8746V25.1823H22.7143V32.8746H26.7143ZM4 36.9962V16.7873H0V36.9962H4ZM4 16.7873C4 15.265 4.00156 14.2439 4.06598 13.4577C4.12848 12.695 4.23995 12.3314 4.36226 12.0921L0.800351 10.272C0.341353 11.1702 0.162178 12.1201 0.0793434 13.131C-0.00156434 14.1184 0 15.3312 0 16.7873H4ZM4.36229 12.092C4.68106 11.4681 5.19029 10.9599 5.81794 10.641L4.00616 7.07483C2.62673 7.77565 1.50416 8.89451 0.800325 10.272L4.36229 12.092ZM5.818 10.641C6.05998 10.518 6.4267 10.4065 7.19282 10.3441C7.98211 10.2798 9.00696 10.2783 10.5333 10.2783V6.27825C9.07278 6.27825 7.85741 6.27671 6.86801 6.35731C5.85543 6.43981 4.90498 6.61815 4.00611 7.07485L5.818 10.641ZM10.5333 10.2783H13.3457V6.27825H10.5333V10.2783ZM13.3457 10.2783C13.6252 10.2783 13.9244 10.2813 14.2158 10.248L13.7616 6.27391C13.7697 6.27298 13.7577 6.27511 13.6906 6.27655C13.6161 6.27815 13.5179 6.27825 13.3457 6.27825V10.2783ZM14.2156 10.2481C15.5945 10.0906 16.8332 9.32822 17.5932 8.16563L14.2451 5.97692C14.1377 6.1412 13.961 6.25113 13.7618 6.27389L14.2156 10.2481ZM17.5932 8.16558C17.7538 7.91992 17.8852 7.65108 18.0101 7.40194L14.4343 5.60913C14.3574 5.76263 14.3134 5.85005 14.2788 5.91565C14.2475 5.97467 14.2404 5.98412 14.2451 5.97697L17.5932 8.16558ZM18.01 7.40203C18.325 6.77387 18.4136 6.60425 18.5023 6.4685L15.1543 4.27964C14.9106 4.65252 14.7059 5.06768 14.4344 5.60903L18.01 7.40203ZM18.5024 6.46843C19.0435 5.64071 19.9279 5.09463 20.9163 4.98174L20.4624 1.00757C18.2944 1.25519 16.348 2.45368 15.1543 4.27971L18.5024 6.46843ZM20.9163 4.98173C21.0786 4.9632 21.2711 4.96011 21.9752 4.96011V0.960114C21.3678 0.960114 20.9049 0.957028 20.4624 1.00758L20.9163 4.98173ZM21.9752 4.96011H30.0248V0.960114H21.9752V4.96011ZM30.0248 4.96011C30.7289 4.96011 30.9214 4.9632 31.0837 4.98173L31.5376 1.00758C31.0951 0.957028 30.6322 0.960114 30.0248 0.960114V4.96011ZM31.0837 4.98173C32.0721 5.09463 32.9566 5.64073 33.4977 6.46848L36.8457 4.27967C35.652 2.45366 33.7055 1.2552 31.5376 1.00758L31.0837 4.98173ZM33.4974 6.46796C33.5864 6.60413 33.6751 6.77417 33.9902 7.40239L37.5655 5.60867C37.294 5.06754 37.0894 4.65258 36.8461 4.28018L33.4974 6.46796ZM33.9895 7.40096C34.1146 7.65074 34.246 7.91988 34.4072 8.16632L37.7544 5.97623C37.7592 5.98363 37.7522 5.97445 37.7213 5.91584C37.6868 5.85063 37.643 5.7634 37.5662 5.6101L33.9895 7.40096ZM34.407 8.16592C35.1669 9.32801 36.4051 10.0905 37.7843 10.2481L38.2381 6.27389C38.0391 6.25116 37.8624 6.14142 37.7546 5.97663L34.407 8.16592ZM37.7845 10.2481C38.0759 10.2813 38.3746 10.2783 38.6544 10.2783V6.27825C38.4822 6.27825 38.384 6.27815 38.3094 6.27655C38.2424 6.27512 38.2302 6.27298 38.2379 6.27387L37.7845 10.2481ZM38.6544 10.2783H41.4667V6.27825H38.6544V10.2783ZM41.4667 10.2783C42.993 10.2783 44.0179 10.2798 44.8072 10.3441C45.5734 10.4065 45.9401 10.518 46.182 10.6409L47.994 7.07487C47.0951 6.61815 46.1446 6.43981 45.132 6.35731C44.1426 6.27671 42.9272 6.27825 41.4667 6.27825V10.2783ZM46.1821 10.641C46.8098 10.9599 47.319 11.4682 47.6376 12.0919L51.1997 10.2722C50.4959 8.89446 49.3732 7.77563 47.994 7.07486L46.1821 10.641ZM47.6377 12.0921C47.76 12.3314 47.8715 12.695 47.934 13.4577C47.9984 14.2439 48 15.265 48 16.7873H52C52 15.3312 52.0016 14.1184 51.9207 13.131C51.8378 12.12 51.6586 11.1702 51.1996 10.2719L47.6377 12.0921ZM48 16.7873V36.9962H52V16.7873H48ZM48 36.9962C48 38.5185 47.9984 39.5397 47.934 40.3259C47.8715 41.0886 47.76 41.4521 47.6377 41.6914L51.1996 43.5117C51.6586 42.6134 51.8378 41.6635 51.9207 40.6525C52.0016 39.6651 52 38.4523 52 36.9962H48ZM47.6376 41.6916C47.319 42.3154 46.8097 42.8237 46.1822 43.1424L47.9938 46.7087C49.3732 46.008 50.496 44.8889 51.1997 43.5114L47.6376 41.6916ZM46.182 43.1425C45.9401 43.2655 45.5734 43.377 44.8072 43.4394C44.0179 43.5037 42.993 43.5052 41.4667 43.5052V47.5052C42.9272 47.5052 44.1426 47.5068 45.132 47.4262C46.1446 47.3437 47.0951 47.1653 47.994 46.7086L46.182 43.1425ZM41.4667 43.5052H10.5333V47.5052H41.4667V43.5052ZM10.5333 43.5052C9.00696 43.5052 7.98212 43.5037 7.19283 43.4394C6.42672 43.377 6.06001 43.2655 5.81803 43.1425L4.00608 46.7086C4.90495 47.1653 5.85542 47.3437 6.868 47.4262C7.8574 47.5068 9.07278 47.5052 10.5333 47.5052V43.5052ZM5.81779 43.1424C5.19034 42.8237 4.68108 42.3154 4.36226 41.6915L0.800354 43.5116C1.50414 44.8889 2.62667 46.0079 4.00631 46.7087L5.81779 43.1424ZM4.36224 41.6914C4.23996 41.4521 4.12848 41.0886 4.06598 40.3259C4.00156 39.5397 4 38.5185 4 36.9962H0C0 38.4523 -0.00156426 39.6651 0.079343 40.6525C0.162176 41.6635 0.341348 42.6134 0.800369 43.5116L4.36224 41.6914Z" fill="#FF670E"/>
</svg>
