<svg xmlns="http://www.w3.org/2000/svg" data-name="Layer 1" viewBox="0 0 1000 1250" x="0px" y="0px"><title>7061-Carbohydrates</title><path d="M677.66,286.51h-6.23a16,16,0,0,1,0-32h6.23a16,16,0,0,1,0,32Z"/><path d="M727.53,350.92H721.3a16,16,0,0,1,0-32h6.23a16,16,0,0,1,0,32Z"/><path d="M626.23,357.16H620a16,16,0,0,1,0-32h6.23a16,16,0,0,1,0,32Z"/><path d="M659,824H341A257.06,257.06,0,0,1,84,567V400.73a16,16,0,0,1,16-16H900a16,16,0,0,1,16,16V567A257.06,257.06,0,0,1,659,824ZM116,416.73V567C116,691.05,217,792,341,792H659c124.09,0,225-101,225-225V416.73Z"/><path d="M714.55,915.07H285.44a68.76,68.76,0,0,1-68.68-68.68v-64a16,16,0,0,1,32,0v64a36.72,36.72,0,0,0,36.68,36.68H714.55a36.72,36.72,0,0,0,36.68-36.68v-64a16,16,0,1,1,32,0v64A68.76,68.76,0,0,1,714.55,915.07Z"/><path d="M162,416.74a16,16,0,0,1-11.66-5.08c-19.3-12.37-31-33.15-31-55.54,0-30.37,21.32-56.07,50.45-64.22a63.75,63.75,0,0,1-2.59-18c0-36.9,31.49-66.91,70.21-66.91h.93c1.26-35.84,32.24-64.63,70.15-64.63a73.42,73.42,0,0,1,22.6,3.56c9.28-26.62,35.64-45.86,66.64-45.86a72.18,72.18,0,0,1,43.88,14.6,68.3,68.3,0,0,1,12.61-13.58,72.87,72.87,0,0,1,91.57,0,68,68,0,0,1,12.61,13.58,72.1,72.1,0,0,1,43.88-14.6c31,0,57.37,19.25,66.65,45.86a73.3,73.3,0,0,1,22.58-3.56c37.91,0,68.91,28.79,70.17,64.63h.93c38.72,0,70.21,30,70.21,66.91a64.11,64.11,0,0,1-2.59,18c29.12,8.15,50.45,33.85,50.45,64.22,0,22.42-11.78,43.22-31.12,55.58a16,16,0,0,1-14.34,4.8l-.35,0a16,16,0,0,1-5.43-30c11.87-6.24,19.24-17.85,19.24-30.3,0-19.25-17.13-34.91-38.19-34.91-1.26,0-2.53.06-3.86.18a16,16,0,0,1-13.72-26.23,32.64,32.64,0,0,0,7.91-21.23c0-19.25-17.14-34.91-38.21-34.91a41.13,41.13,0,0,0-14.52,2.63,16,16,0,0,1-20.54-20.75,32,32,0,0,0,2.17-11.6c0-19.25-17.14-34.91-38.21-34.91a40.27,40.27,0,0,0-25.15,8.66,16,16,0,0,1-26-13.53c0-.79.1-1.71.1-2.52,0-19.25-17.14-34.91-38.2-34.91-14.61,0-28.13,7.79-34.47,19.86a16,16,0,0,1-30-5c-2.62-17.1-18.88-30-37.83-30s-35.19,12.9-37.81,30a16,16,0,0,1-30,5c-6.34-12.07-19.88-19.87-34.48-19.87-21.06,0-38.19,15.66-38.19,34.91,0,.77,0,1.55.09,2.31a16,16,0,0,1-26,13.74,40.31,40.31,0,0,0-25.17-8.66c-21.06,0-38.19,15.65-38.19,34.9a32.35,32.35,0,0,0,2.16,11.62,16,16,0,0,1-20.56,20.72A41.07,41.07,0,0,0,237.4,239c-21.07,0-38.21,15.66-38.21,34.91a32.6,32.6,0,0,0,7.9,21.22,16,16,0,0,1-13.71,26.24c-1.33-.12-2.6-.18-3.86-.18-21.06,0-38.19,15.66-38.19,34.91,0,12.45,7.37,24.06,19.24,30.3a16,16,0,0,1-5.4,30l-.41.06A16.74,16.74,0,0,1,162,416.74Z"/><path d="M266.23,357.16H260a16,16,0,0,1,0-32h6.23a16,16,0,0,1,0,32Z"/><path d="M295.67,296.9h-6.23a16,16,0,1,1,0-32h6.23a16,16,0,0,1,0,32Z"/><path d="M360.09,266.83h-6.24a16,16,0,0,1,0-32h6.24a16,16,0,1,1,0,32Z"/><path d="M431.08,234.56h-6.23a16,16,0,0,1,0-32h6.23a16,16,0,0,1,0,32Z"/><path d="M509.35,223.48h-6.23a16,16,0,0,1,0-32h6.23a16,16,0,0,1,0,32Z"/><path d="M589.7,244.26h-6.24a16,16,0,0,1,0-32h6.24a16,16,0,0,1,0,32Z"/><path d="M372.21,344H366a16,16,0,0,1,0-32h6.24a16,16,0,1,1,0,32Z"/><path d="M465,344h-6.23a16,16,0,1,1,0-32H465a16,16,0,0,1,0,32Z"/><path d="M542.25,317.68H536a16,16,0,0,1,0-32h6.23a16,16,0,0,1,0,32Z"/><path d="M478.71,711.75c-64.09,0-122.31-31.81-125.51-33.59a16,16,0,0,1-7.73-18C346.68,655.5,375.93,544.75,459,509s183.57,19.19,187.81,21.55a16,16,0,0,1,7.73,18C653.31,553.23,624.06,664,541,699.71,520.74,708.43,499.42,711.75,478.71,711.75Zm-98.39-55.9c26.62,12.13,94.08,37.68,148.05,14.46s81.79-89.75,91.3-117.43c-26.64-12.14-94.09-37.68-148-14.47S389.83,628.16,380.32,655.85Z"/><text x="0" y="1015" fill="#000000" font-size="5px" font-weight="bold" font-family="'Helvetica Neue', Helvetica, Arial-Unicode, Arial, Sans-serif">Created by IYIKON</text><text x="0" y="1020" fill="#000000" font-size="5px" font-weight="bold" font-family="'Helvetica Neue', Helvetica, Arial-Unicode, Arial, Sans-serif">from the Noun Project</text></svg>