<svg width="20" height="21" viewBox="0 0 20 21" fill="none" xmlns="http://www.w3.org/2000/svg">
<path d="M8 14.6667H12C12.2833 14.6667 12.5208 14.5669 12.7125 14.3672C12.9042 14.1676 13 13.9202 13 13.625V11.5417H11V12.5834H9V8.41671H11V9.45837H13V7.37504C13 7.0799 12.9042 6.83251 12.7125 6.63285C12.5208 6.4332 12.2833 6.33337 12 6.33337H8C7.71667 6.33337 7.47917 6.4332 7.2875 6.63285C7.09583 6.83251 7 7.0799 7 7.37504V13.625C7 13.9202 7.09583 14.1676 7.2875 14.3672C7.47917 14.5669 7.71667 14.6667 8 14.6667ZM10 20.9167C8.61667 20.9167 7.31667 20.6433 6.1 20.0964C4.88333 19.5495 3.825 18.8073 2.925 17.8698C2.025 16.9323 1.3125 15.8299 0.7875 14.5625C0.2625 13.2952 0 11.941 0 10.5C0 9.05907 0.2625 7.7049 0.7875 6.43754C1.3125 5.17018 2.025 4.06775 2.925 3.13025C3.825 2.19275 4.88333 1.45056 6.1 0.903687C7.31667 0.356812 8.61667 0.083374 10 0.083374C11.3833 0.083374 12.6833 0.356812 13.9 0.903687C15.1167 1.45056 16.175 2.19275 17.075 3.13025C17.975 4.06775 18.6875 5.17018 19.2125 6.43754C19.7375 7.7049 20 9.05907 20 10.5C20 11.941 19.7375 13.2952 19.2125 14.5625C18.6875 15.8299 17.975 16.9323 17.075 17.8698C16.175 18.8073 15.1167 19.5495 13.9 20.0964C12.6833 20.6433 11.3833 20.9167 10 20.9167ZM10 18.8334C12.2333 18.8334 14.125 18.0261 15.675 16.4115C17.225 14.7969 18 12.8264 18 10.5C18 8.17365 17.225 6.20317 15.675 4.58858C14.125 2.974 12.2333 2.16671 10 2.16671C7.76667 2.16671 5.875 2.974 4.325 4.58858C2.775 6.20317 2 8.17365 2 10.5C2 12.8264 2.775 14.7969 4.325 16.4115C5.875 18.0261 7.76667 18.8334 10 18.8334Z" fill="white"/>
</svg>
