<svg xmlns="http://www.w3.org/2000/svg" viewBox="0 0 512 640" x="0px" y="0px"><g><g><g><g><path d="M255.96,471.83c-50.02,0-98.33-17.23-136.98-49.06-2.18-1.79-3.5-4.42-3.63-7.24-.14-2.82,.92-5.56,2.92-7.55L407.99,118.27c2-1.99,4.75-3.05,7.55-2.92,2.82,.14,5.45,1.46,7.24,3.63,33.92,41.2,51.26,93.36,48.83,146.89-2.45,53.88-24.82,104.58-62.99,142.75-38.17,38.17-88.86,60.54-142.75,62.99-3.31,.15-6.62,.23-9.91,.23Zm-115.54-57.71c77.63,57.06,185.01,49.4,254.06-19.65,69.05-69.05,76.71-176.42,19.65-254.06L140.42,414.12Z"/><path d="M96.94,396.66c-.16,0-.32,0-.48-.01-2.82-.14-5.44-1.46-7.24-3.63-33.92-41.2-51.26-93.36-48.83-146.89,2.45-53.88,24.82-104.58,62.99-142.75s88.86-60.54,142.75-62.99c53.53-2.44,105.69,14.91,146.89,48.83,2.18,1.79,3.5,4.42,3.63,7.24s-.92,5.56-2.92,7.55L104.01,393.73c-1.88,1.88-4.43,2.93-7.07,2.93ZM256.01,59.85c-50.22,0-100.23,19.41-138.49,57.67-69.05,69.05-76.71,176.42-19.65,254.06L371.58,97.88c-34.62-25.44-75.16-38.02-115.57-38.02Z"/></g><g><path d="M256,512c-68.38,0-132.67-26.63-181.02-74.98C26.63,388.67,0,324.38,0,256S26.63,123.33,74.98,74.98,187.62,0,256,0s132.67,26.63,181.02,74.98c48.35,48.35,74.98,112.64,74.98,181.02s-26.63,132.67-74.98,181.02c-48.35,48.35-112.64,74.98-181.02,74.98Zm0-492C125.87,20,20,125.87,20,256s105.87,236,236,236,236-105.87,236-236S386.13,20,256,20Z"/><path d="M256,512c-68.38,0-132.67-26.63-181.02-74.98C26.63,388.67,0,324.38,0,256S26.63,123.33,74.98,74.98,187.62,0,256,0s132.67,26.63,181.02,74.98c48.35,48.35,74.98,112.64,74.98,181.02s-26.63,132.67-74.98,181.02c-48.35,48.35-112.64,74.98-181.02,74.98Zm0-492C125.87,20,20,125.87,20,256s105.87,236,236,236,236-105.87,236-236S386.13,20,256,20Z"/></g></g><path d="M256,431.67c-39.44,0-75.81-18-99.77-49.39-3.35-4.39-2.51-10.67,1.88-14.02,4.39-3.35,10.67-2.51,14.02,1.88,20.15,26.39,50.72,41.52,83.88,41.52,58.16,0,105.47-47.31,105.47-105.47,0-13.44-6.39-40.7-36.83-94.2-2.73-4.8-1.05-10.91,3.75-13.64,4.8-2.73,10.91-1.06,13.64,3.75,26.17,46,39.44,81.02,39.44,104.09,0,69.18-56.29,125.47-125.47,125.47Z"/><path d="M145.1,348.5c-4.33,0-8.32-2.84-9.6-7.21-3.3-11.34-4.98-23.15-4.98-35.09,0-28.36,19.94-74.51,59.26-137.17,28.77-45.84,57.95-84.37,58.24-84.76,1.89-2.49,4.84-3.95,7.96-3.95s6.07,1.46,7.96,3.95c.28,.37,28.31,37.38,56.5,81.97,2.95,4.67,1.56,10.85-3.11,13.8-4.67,2.95-10.85,1.56-13.8-3.11-18.73-29.63-37.38-55.84-47.58-69.84-35.51,48.46-105.44,153.33-105.44,199.1,0,10.05,1.41,19.97,4.18,29.5,1.54,5.3-1.5,10.85-6.81,12.4-.93,.27-1.88,.4-2.8,.4Z"/><path d="M256,391.51c-5.52,0-10-4.48-10-10s4.48-10,10-10c36.01,0,65.31-29.3,65.31-65.31,0-5.52,4.48-10,10-10s10,4.48,10,10c0,47.04-38.27,85.31-85.31,85.31Z"/></g></g><text x="0" y="527" fill="#000000" font-size="5px" font-weight="bold" font-family="'Helvetica Neue', Helvetica, Arial-Unicode, Arial, Sans-serif">Created by iconade</text><text x="0" y="532" fill="#000000" font-size="5px" font-weight="bold" font-family="'Helvetica Neue', Helvetica, Arial-Unicode, Arial, Sans-serif">from the Noun Project</text></svg>