<svg width="59" height="59" viewBox="0 0 59 59" fill="none" xmlns="http://www.w3.org/2000/svg">
<g clip-path="url(#clip0_313_249)">
<path d="M50.8055 34.4167H21.3055C20.8709 34.4167 20.454 34.5893 20.1466 34.8967C19.8393 35.204 19.6666 35.6209 19.6666 36.0555C19.6666 36.4902 19.8393 36.9071 20.1466 37.2144C20.454 37.5218 20.8709 37.6944 21.3055 37.6944H50.8055C51.2402 37.6944 51.657 37.5218 51.9644 37.2144C52.2718 36.9071 52.4444 36.4902 52.4444 36.0555C52.4444 35.6209 52.2718 35.204 51.9644 34.8967C51.657 34.5893 51.2402 34.4167 50.8055 34.4167Z" fill="#FF670E"/>
<path d="M19.6666 26.2222C19.6666 26.6569 19.8393 27.0737 20.1466 27.3811C20.454 27.6884 20.8709 27.8611 21.3055 27.8611H50.8055C51.2402 27.8611 51.657 27.6884 51.9644 27.3811C52.2718 27.0737 52.4444 26.6569 52.4444 26.2222C52.4444 25.7876 52.2718 25.3707 51.9644 25.0633C51.657 24.756 51.2402 24.5833 50.8055 24.5833H21.3055C20.8709 24.5833 20.454 24.756 20.1466 25.0633C19.8393 25.3707 19.6666 25.7876 19.6666 26.2222Z" fill="#FF670E"/>
<path d="M44.25 44.25H21.3055C20.8709 44.25 20.454 44.4227 20.1466 44.73C19.8393 45.0374 19.6666 45.4542 19.6666 45.8889C19.6666 46.3235 19.8393 46.7404 20.1466 47.0478C20.454 47.3551 20.8709 47.5278 21.3055 47.5278H44.25C44.6846 47.5278 45.1015 47.3551 45.4088 47.0478C45.7162 46.7404 45.8888 46.3235 45.8888 45.8889C45.8888 45.4542 45.7162 45.0374 45.4088 44.73C45.1015 44.4227 44.6846 44.25 44.25 44.25Z" fill="#FF670E"/>
<path d="M26.042 14.75C26.042 14.3153 25.8693 13.8985 25.562 13.5911C25.2546 13.2838 24.8377 13.1111 24.4031 13.1111H16.3889V5.26084C16.3889 4.82618 16.2163 4.40932 15.9089 4.10197C15.6015 3.79462 15.1847 3.62195 14.75 3.62195C14.3154 3.62195 13.8985 3.79462 13.5912 4.10197C13.2838 4.40932 13.1111 4.82618 13.1111 5.26084V13.1111H4.73642C4.30176 13.1111 3.8849 13.2838 3.57755 13.5911C3.2702 13.8985 3.09753 14.3153 3.09753 14.75C3.09753 15.1847 3.2702 15.6015 3.57755 15.9089C3.8849 16.2162 4.30176 16.3889 4.73642 16.3889H13.1111V24.9275C13.1111 25.3622 13.2838 25.779 13.5912 26.0864C13.8985 26.3937 14.3154 26.5664 14.75 26.5664C15.1847 26.5664 15.6015 26.3937 15.9089 26.0864C16.2163 25.779 16.3889 25.3622 16.3889 24.9275V16.3889H24.4031C24.8377 16.3889 25.2546 16.2162 25.562 15.9089C25.8693 15.6015 26.042 15.1847 26.042 14.75Z" fill="#FF670E"/>
</g>
<defs>
<clipPath id="clip0_313_249">
<rect width="59" height="59" fill="white"/>
</clipPath>
</defs>
</svg>
