<svg width="35" height="37" viewBox="0 0 35 37" fill="none" xmlns="http://www.w3.org/2000/svg">
<path d="M17.2969 0.870117C12.7075 0.870117 12.132 0.89056 10.3295 0.976872C8.53088 1.06303 7.30247 1.36301 6.22756 1.80154C5.11632 2.25498 4.17392 2.8617 3.23449 3.84807C2.29501 4.83443 1.71716 5.82402 1.28535 6.99077C0.867581 8.11933 0.581974 9.40911 0.499819 11.2976C0.417613 13.1901 0.398193 13.7944 0.398193 18.6131C0.398193 23.4317 0.417613 24.036 0.499819 25.9284C0.581974 27.817 0.867581 29.1068 1.28535 30.2353C1.71721 31.4021 2.29506 32.3915 3.23449 33.378C4.17397 34.3644 5.11632 34.9711 6.22756 35.4245C7.30247 35.8631 8.53088 36.163 10.3295 36.2492C12.132 36.3355 12.7075 36.356 17.2969 36.356C21.8862 36.356 22.4617 36.3355 24.2642 36.2492C26.0628 36.1631 27.2913 35.8631 28.3661 35.4245C29.4774 34.9711 30.4198 34.3644 31.3593 33.378C32.2987 32.3915 32.8766 31.4021 33.3084 30.2353C33.7261 29.1068 34.0118 27.817 34.0939 25.9284C34.1761 24.036 34.1955 23.4317 34.1955 18.6131C34.1955 13.7944 34.1761 13.1901 34.0939 11.2976C34.0118 9.40911 33.7261 8.11933 33.3084 6.99077C32.8766 5.82402 32.2987 4.83443 31.3593 3.84807C30.4198 2.8617 29.4774 2.25498 28.3661 1.80154C27.2913 1.36301 26.0628 1.06303 24.2642 0.976872C22.4617 0.89056 21.8862 0.870117 17.2969 0.870117ZM17.2969 4.06702C21.809 4.06702 22.3435 4.08514 24.1254 4.1705C25.773 4.24936 26.6678 4.53841 27.2632 4.7814C28.052 5.1033 28.615 5.48774 29.2062 6.10863C29.7976 6.72951 30.1638 7.3206 30.4704 8.14876C30.7018 8.77397 30.9771 9.71348 31.0522 11.4434C31.1335 13.3143 31.1508 13.8755 31.1508 18.613C31.1508 23.3506 31.1335 23.9118 31.0522 25.7827C30.9771 27.5127 30.7018 28.4521 30.4704 29.0773C30.1638 29.9055 29.7976 30.4966 29.2062 31.1174C28.615 31.7383 28.052 32.1228 27.2632 32.4447C26.6678 32.6877 25.773 32.9767 24.1254 33.0556C22.3438 33.1409 21.8093 33.1591 17.2969 33.1591C12.7844 33.1591 12.2501 33.1409 10.4684 33.0555C8.82071 32.9767 7.92596 32.6877 7.33055 32.4447C6.54169 32.1228 5.97878 31.7383 5.38749 31.1174C4.79615 30.4966 4.42995 29.9055 4.12336 29.0773C3.89194 28.4521 3.6167 27.5126 3.54153 25.7827C3.46023 23.9118 3.44298 23.3506 3.44298 18.613C3.44298 13.8755 3.46023 13.3143 3.54153 11.4434C3.6167 9.71342 3.89194 8.77397 4.12336 8.14881C4.42995 7.32054 4.79615 6.72951 5.38744 6.10868C5.97878 5.48774 6.54174 5.1033 7.33049 4.7814C7.92596 4.53841 8.82076 4.24936 10.4684 4.1705C12.2503 4.08514 12.7848 4.06702 17.2969 4.06702Z" fill="white"/>
<path d="M17.2969 24.5274C14.1858 24.5274 11.6639 21.8795 11.6639 18.6131C11.6639 15.3467 14.1858 12.6988 17.2969 12.6988C20.4078 12.6988 22.9297 15.3467 22.9297 18.6131C22.9297 21.8795 20.4078 24.5274 17.2969 24.5274ZM17.2969 9.50187C12.5042 9.50187 8.61914 13.5811 8.61914 18.6131C8.61914 23.6451 12.5042 27.7243 17.2969 27.7243C22.0894 27.7243 25.9745 23.6451 25.9745 18.6131C25.9745 13.5811 22.0894 9.50187 17.2969 9.50187ZM28.3453 9.14188C28.3453 10.3178 27.4373 11.271 26.3174 11.271C25.1975 11.271 24.2896 10.3178 24.2896 9.14188C24.2896 7.96599 25.1975 7.0127 26.3174 7.0127C27.4373 7.0127 28.3453 7.96599 28.3453 9.14188Z" fill="white"/>
</svg>
