<svg width="41" height="34" viewBox="0 0 41 34" fill="none" xmlns="http://www.w3.org/2000/svg">
<path d="M4.838 33.8383C3.7603 33.8383 2.83771 33.4355 2.07026 32.6297C1.3028 31.8239 0.919067 30.8552 0.919067 29.7236V5.03537C0.919067 3.90382 1.3028 2.93515 2.07026 2.12935C2.83771 1.32355 3.7603 0.920654 4.838 0.920654H36.1895C37.2672 0.920654 38.1898 1.32355 38.9573 2.12935C39.7247 2.93515 40.1084 3.90382 40.1084 5.03537V29.7236C40.1084 30.8552 39.7247 31.8239 38.9573 32.6297C38.1898 33.4355 37.2672 33.8383 36.1895 33.8383H4.838ZM20.5138 19.4369L4.838 9.15008V29.7236H36.1895V9.15008L20.5138 19.4369ZM20.5138 15.3221L36.1895 5.03537H4.838L20.5138 15.3221ZM4.838 9.15008V5.03537V29.7236V9.15008Z" fill="white"/>
</svg>
