<svg xmlns="http://www.w3.org/2000/svg" version="1.1" viewBox="-5.0 -10.0 110.0 135.0">
 <path d="m20 50.227-7.7461 4.4805c1.3086 0.58594 2.5234 1.4414 3.3789 2.1406 3.1523 2.6133 5.9922 6.2383 8.6289 9.3477 2.6133 3.0391 6.8477 8.043 10.812 9.5039l7.75-4.4805c-1.3086-0.5625-2.5469-1.4414-3.4023-2.1406-3.1328-2.5898-5.9688-6.2383-8.6055-9.3242-2.6172-3.0625-6.8516-8.0625-10.816-9.5273zm52.887 39.418c21.758-12.566 29.328-40.77 16.758-62.527-12.59-21.781-40.77-29.324-62.527-16.758-21.781 12.57-29.324 40.746-16.758 62.527 12.57 21.758 40.746 29.328 62.527 16.758zm-44.598-77.258c20.652-11.914 47.391-4.75 59.309 15.902 11.934 20.656 4.7734 47.391-15.879 59.305-20.656 11.938-47.391 4.7734-59.328-15.879-11.918-20.652-4.7539-47.391 15.898-59.328zm35.723 61.898c8.5156-4.9102 13.492-13.629 13.988-22.773 0.5625 0.26953 1.1055 0.49609 1.668 0.67578 0.33984 0.11328 0.67578 0.089844 0.99219-0.089844l11.375-6.5781c1.5547-0.85547 0.35938-2.9062-1.1055-2.0703-0.42969 0.20312-1.5078-0.046875-1.8672-0.20312-1.1484-0.40234-2.2734-1.1719-3.1992-1.9375-6.2188-5.1562-13.043-17.027-20.609-19.414-0.31641-0.11328-0.69922-0.089843-1.0156 0.089844l-3.582 2.0703c-7.7695-3.1758-16.848-2.8594-24.688 1.668-8.5156 4.9102-13.469 13.625-13.965 22.77-0.53906-0.26953-1.082-0.49609-1.6211-0.65234-0.38281-0.13672-0.69922-0.13672-1.0352 0.066406l-11.422 6.5781c-1.5781 0.92188-0.22656 2.8398 1.0586 2.1172 0.44922-0.20312 1.5547 0.019532 1.9375 0.15625 1.125 0.42969 2.2539 1.1719 3.1758 1.9375 6.2383 5.1562 13.043 17.051 20.633 19.414 0.31641 0.11328 0.67578 0.089844 0.99219-0.089844l3.625-2.0977c7.75 3.2031 16.848 2.8672 24.664-1.6367zm11.691-24.168c-0.046875 8.8281-4.6602 17.41-12.863 22.141-6.5742 3.8047-14.145 4.3477-20.855 2.1602l5.1562-2.9766c2.1602-1.2188 1.8672-4.2109 1.418-6.2812-0.65234-2.9297-1.3984-5.8555-2.2305-8.7383 3.4453 3.9414 7.0703 7.5469 10.879 8.7148 0.31641 0.11328 0.67578 0.089843 0.99219-0.089844l11.398-6.5742c2.1602-1.1953 1.8711-4.2148 1.418-6.2617-0.65234-2.9492-1.3945-5.8555-2.2305-8.7383 2.2344 2.543 4.5273 4.9297 6.918 6.6445zm-51.398-0.22656c0.046874-8.8281 4.6406-17.41 12.84-22.141 6.6016-3.8086 14.168-4.3711 20.855-2.1641l-5.1367 2.9727c-2.1875 1.2148-1.8945 4.2109-1.4414 6.2617 0.65234 2.9531 1.3945 5.8594 2.2305 8.7656-3.4219-3.9414-7.0508-7.5469-10.855-8.7188-0.31641-0.13672-0.67578-0.10938-0.99219 0.070312l-11.398 6.5781c-2.1836 1.2148-1.8906 4.2109-1.418 6.2812 0.65234 2.9297 1.3945 5.8555 2.2305 8.7383-2.2305-2.5469-4.5508-4.957-6.9141-6.6445zm63.426-4.5977c-1.3281-0.5625-2.5469-1.418-3.4023-2.1406-3.1328-2.5898-5.9688-6.2148-8.6289-9.3242-2.6133-3.0625-6.8477-8.0625-10.812-9.5078l-7.7266 4.4609c1.3047 0.5625 2.5469 1.418 3.3984 2.1406 3.1328 2.5898 5.9688 6.2188 8.6289 9.3242 2.6133 3.0391 6.8477 8.0391 10.812 9.5039zm-22.457 12.977c-1.3086-0.58594-2.5469-1.4414-3.4023-2.1602-3.1328-2.5898-5.9688-6.2188-8.6289-9.3242-2.5898-3.0391-6.8242-8.0391-10.812-9.5039l-7.7266 4.4609c1.3281 0.5625 2.5469 1.4414 3.3984 2.1406 3.1328 2.5898 5.9688 6.2383 8.6289 9.3242 2.6133 3.0625 6.8477 8.0625 10.812 9.5273zm-30.09 2.9297c1.9805 2.3203 3.918 4.4805 5.7656 6.0352 0.94531 0.76562 2.0703 1.5312 3.1992 1.9375 0.47266 0.17969 1.3945 0.42969 1.8672 0.15625 0.8125-0.49219 0.35938-2.9492 0.20312-3.625-1.0352-4.707-2.3203-9.3711-3.875-13.941-1.9609-2.3164-3.8945-4.4805-5.7656-6.0352-0.92578-0.76562-2.0508-1.5312-3.1992-1.9375-0.44922-0.17969-1.375-0.42578-1.8477-0.15625-0.8125 0.51953-0.35938 2.9492-0.20312 3.6484 1.0391 4.7031 2.3203 9.3438 3.8555 13.918zm29.617-22.414c-1.9844-2.3203-3.8984-4.4609-5.7656-6.0156-0.92578-0.76562-2.0508-1.5312-3.1992-1.9375-0.44922-0.17969-1.375-0.44922-1.8477-0.15625-0.83203 0.49609-0.35938 2.9297-0.22656 3.625 1.0586 4.707 2.3438 9.3711 3.8711 13.941 1.9844 2.3203 3.8984 4.4805 5.7656 6.0117 0.92578 0.76953 2.0703 1.5312 3.1992 1.9609 0.47266 0.15625 1.3945 0.42969 1.8477 0.13672 0.83203-0.49609 0.38281-2.9297 0.22656-3.625-1.0547-4.707-2.3164-9.3672-3.8711-13.941z" fill-rule="evenodd"/>
<text x="0.0" y="117.5" font-size="5.0" font-weight="bold" font-family="Arbeit Regular, Helvetica, Arial-Unicode, Arial, Sans-serif" fill="#000000">Created by siti muayanah</text><text x="0.0" y="122.5" font-size="5.0" font-weight="bold" font-family="Arbeit Regular, Helvetica, Arial-Unicode, Arial, Sans-serif" fill="#000000">from Noun Project</text></svg>