<svg width="54" height="55" viewBox="0 0 54 55" fill="none" xmlns="http://www.w3.org/2000/svg">
<path d="M27.8307 26.1619L27.8275 26.9832L28.4025 27.5698L36.8599 36.1968L35.9295 37.1312L26.4851 27.4974L26.5309 15.7246L27.8712 15.7298L27.8307 26.1619ZM27.059 52.2665C23.629 52.2532 20.4341 51.5836 17.4535 50.268C14.4339 48.9352 11.8282 47.1416 9.61878 44.8878C7.40921 42.6339 5.65508 39.9802 4.35931 36.9077C3.07981 33.8738 2.44117 30.626 2.4547 27.1443C2.46824 23.6626 3.13211 20.4198 4.43516 17.396C5.75478 14.3337 7.52949 11.6937 9.75652 9.45704C11.9834 7.22054 14.6029 5.44721 17.6328 4.1379C20.6235 2.84553 23.8236 2.20081 27.2536 2.21414C30.6836 2.22748 33.8785 2.89706 36.8591 4.21264C39.8787 5.54547 42.4844 7.33911 44.6938 9.59286C46.9034 11.8467 48.6575 14.5005 49.9533 17.5729C51.2328 20.6068 51.8714 23.8547 51.8579 27.3364C51.8444 30.818 51.1805 34.0608 49.8774 37.0847C48.5578 40.147 46.7831 42.787 44.5561 45.0236C42.3292 47.2601 39.7097 49.0335 36.6798 50.3428C33.6891 51.6351 30.489 52.2799 27.059 52.2665ZM27.0645 50.8613C33.5181 50.8863 39.0794 48.588 43.6338 44.0138C48.1874 39.4406 50.4922 33.8412 50.5176 27.3312C50.5429 20.8211 48.2817 15.204 43.7637 10.5954C39.245 5.98603 33.7018 3.6445 27.2481 3.61941C20.7945 3.59432 15.2332 5.89268 10.6788 10.4668C6.12516 15.0401 3.82036 20.6395 3.79505 27.1495C3.76974 33.6595 6.03094 39.2767 10.5488 43.8852C15.0676 48.4946 20.6108 50.8362 27.0645 50.8613Z" stroke="#D22701" stroke-width="4"/>
</svg>
