<svg width="42" height="37" viewBox="0 0 42 37" fill="none" xmlns="http://www.w3.org/2000/svg">
<path d="M13.3121 36.3558C29.0056 36.3558 37.5878 22.7048 37.5878 10.8672C37.5878 10.4795 37.5803 10.0935 37.5637 9.70923C39.2335 8.44063 40.6747 6.86981 41.8196 5.0704C40.2909 5.78396 38.6458 6.26425 36.9201 6.48081C38.6815 5.37165 40.0338 3.61737 40.6719 1.52594C38.9969 2.5692 37.1647 3.3046 35.254 3.70044C33.6971 1.9592 31.4807 0.870117 29.0262 0.870117C24.3145 0.870117 20.4936 4.88198 20.4936 9.82717C20.4936 10.5302 20.5686 11.214 20.715 11.8698C13.6238 11.4952 7.33592 7.93047 3.12771 2.51011C2.36979 3.87713 1.9711 5.4309 1.97239 7.01267C1.97239 10.1207 3.47868 12.8644 5.76922 14.4695C4.41435 14.4261 3.08919 14.0419 1.90513 13.3491C1.90388 13.3867 1.90388 13.4234 1.90388 13.4635C1.90388 17.802 4.84485 21.4242 8.74885 22.245C8.01561 22.4547 7.259 22.5608 6.49905 22.5603C5.96087 22.56 5.42394 22.5058 4.89551 22.3987C5.98175 25.9581 9.13149 28.5483 12.8658 28.6207C9.94561 31.0239 6.26699 32.4553 2.26893 32.4553C1.5811 32.4553 0.901642 32.4143 0.233765 32.3313C4.0098 34.8726 8.49347 36.3553 13.3125 36.3553" fill="white"/>
</svg>
