<svg width="43" height="35" viewBox="0 0 43 35" fill="none" xmlns="http://www.w3.org/2000/svg">
<path d="M41.2024 29.3469C40.4342 31.1601 38.4525 32.8023 36.5916 33.165C36.4012 33.2022 31.8533 34.064 21.8818 34.064H21.8555C11.8852 34.064 7.33347 33.2022 7.14436 33.1664C5.28347 32.8023 3.30045 31.1601 2.53088 29.3455C2.46259 29.1842 0.857788 25.3041 0.857788 17.5176C0.857788 9.73114 2.46259 5.84962 2.53088 5.6883C3.30045 3.87371 5.28347 2.23286 7.14436 1.87021C7.33347 1.83298 11.8852 0.971191 21.8555 0.971191C31.8533 0.971191 36.4012 1.83298 36.5903 1.86883C38.4525 2.23286 40.4342 3.87371 41.2038 5.68692C41.272 5.84962 42.8808 9.73114 42.8808 17.5176C42.8808 25.3041 41.272 29.1842 41.2024 29.3469ZM38.8005 6.8038C38.3907 5.83721 37.1064 4.77549 36.1109 4.58107C36.0689 4.57279 31.5684 3.72893 21.8818 3.72893C12.1702 3.72893 7.66573 4.57279 7.62239 4.58107C6.62694 4.77549 5.34388 5.83721 4.93283 6.80932C4.9197 6.83827 3.48562 10.3875 3.48562 17.5176C3.48562 24.6463 4.9197 28.1956 4.93546 28.2314C5.34388 29.198 6.62694 30.2597 7.6237 30.4541C7.66573 30.4624 12.1702 31.3063 21.8555 31.3063H21.8818C31.5684 31.3063 36.0689 30.4624 36.1122 30.4541C37.1077 30.2597 38.3907 29.198 38.8018 28.2259C38.8149 28.1956 40.2516 24.6463 40.2516 17.5176C40.2516 10.3889 38.8149 6.83827 38.8005 6.8038ZM18.6393 25.5785C18.4266 25.7205 18.1823 25.7908 17.9394 25.7908C17.7214 25.7908 17.5034 25.7343 17.305 25.6184C16.8861 25.3758 16.6261 24.9138 16.6261 24.4119V10.6233C16.6261 10.1227 16.8835 9.66219 17.2998 9.41951C17.7161 9.17545 18.227 9.18648 18.6301 9.44985L29.1612 16.2835C29.5459 16.5331 29.7823 16.9743 29.7836 17.45C29.785 17.9257 29.5538 18.3697 29.1704 18.6221L18.6393 25.5785ZM19.2539 13.097V21.9148L25.9883 17.4666L19.2539 13.097Z" fill="white"/>
</svg>
