<svg width="340" height="72" viewBox="0 0 340 72" fill="none" xmlns="http://www.w3.org/2000/svg">
<path d="M51.5624 1.87899C49.8428 2.14585 48.1757 2.73967 46.7611 3.76495C38.3305 9.8763 43.7439 24.4225 54.3632 22.7746C56.0969 22.5055 57.7461 21.9698 59.1645 20.9216C67.7462 14.5797 62.5326 0.176617 51.5624 1.87899ZM6.1501 26.2411V26.4398C11.8106 25.1387 18.7361 24.8369 21.9544 30.8129H7.15037C6.64143 35.5799 13.078 36.7147 16.5529 35.3336C17.9981 34.7592 18.6079 33.5516 19.8288 32.8062C20.4924 32.4011 21.6053 32.6019 22.3545 32.6019C22.3441 36.377 19.7054 39.3747 16.3529 40.9504V41.1492C20.5608 40.182 24.1426 37.0928 24.155 32.6019H36.3583C35.4232 33.531 32.1986 35.5976 32.1986 36.9749C32.1986 38.1747 34.7544 39.9532 35.5581 40.7517C39.0914 44.2624 42.6814 48.6301 46.7611 51.4855L55.3634 32.6019L56.9639 32.9994C55.124 37.7112 52.8187 42.3172 50.7004 46.9137C49.7603 48.9537 48.4451 51.0955 47.8834 53.2745C46.9227 57.0002 47.7614 61.9479 47.7614 65.7974H63.7657V25.446H53.1628L49.0915 25.6503L47.6995 28.4276L44.1604 36.5774C42.1494 35.1699 40.1497 31.4889 37.7407 30.8753C34.7957 30.1251 30.8014 30.8129 27.7559 30.8129C26.7351 30.8129 25.1458 31.1097 24.2 30.693C23.0071 30.1675 21.9662 27.7569 20.7541 26.8684C16.5559 23.791 10.6211 23.6486 6.1501 26.2411ZM5.74999 32.6019C5.67517 34.3054 4.02553 36.3567 4.41623 37.9579C4.74172 39.2921 6.8781 39.1682 7.48686 38.1412C8.40211 36.5969 6.80608 33.7226 5.74999 32.6019ZM0.548584 41.5468C0.548584 47.9283 5.32748 52.6313 11.3515 54.2684C10.3624 50.8306 10.2494 48.2318 13.5521 45.9198C11.5852 49.6477 13.6527 54.0957 17.7532 55.0635V54.8647C13.209 50.9184 17.4412 45.8471 22.1544 44.9259C19.9976 46.8378 18.7961 49.4594 20.0215 52.2806C20.3581 53.0559 20.8753 54.0678 21.7551 54.3292C25.0864 55.3189 25.7554 50.1056 25.7554 48.1064H25.9555L26.5556 52.6782C30.928 50.3563 33.5569 46.4877 33.5575 41.5468H0.548584ZM9.95113 55.461V58.0451H26.3556V55.461H9.95113ZM0.948693 59.6353V65.7974H35.358L35.158 59.6353C31.1199 60.5906 26.1049 59.8341 21.9544 59.8341H8.55075C6.05648 59.8341 3.40676 60.0887 0.948693 59.6353Z" fill="#FF670E"/>
<path d="M106.868 49.0112L105.049 49.5277C107.277 58.7414 121.653 54.1764 118.629 45.1375C116.746 39.508 111.018 41.0286 106.608 39.397C99.1872 36.6513 94.8629 29.3798 95.7372 21.6371C96.8293 11.965 107.656 5.63537 116.745 8.40816C121.389 9.8249 124.491 13.2198 126.881 17.2469L128.441 16.7304C127.653 12.3418 122.761 8.64187 118.824 7.12648C108.392 3.11075 96.5817 9.16947 94.1037 20.0876C92.1783 28.571 96.9315 37.5921 105.049 40.8496C108.747 42.3335 114.336 41.1523 116.507 45.1378C119.976 51.5061 109.017 56.2 106.868 49.0112ZM291.663 6.14231V34.2912C291.663 41.0916 292.305 48.1391 288.526 54.1761C280.91 66.3517 263.538 66.7589 254.99 55.4674C248.692 47.1513 251.117 34.005 251.117 24.2196V10.2742C251.117 9.62217 251.455 5.12223 249.714 6.41269C248.768 7.11434 249.298 10.2474 249.298 11.3072V26.2855C249.298 34.2886 247.796 43.985 250.657 51.5937C255.699 65.0054 272.866 69.7463 284.385 61.4729C296.941 52.4542 293.482 34.2555 293.482 20.8624V9.75775C293.482 7.97198 293.895 6.26523 291.663 6.14231ZM290.623 6.40055C290.049 6.32514 289.292 6.14256 288.96 6.77449C288.523 7.6094 288.804 9.09897 288.804 10.016V17.2469V37.6484C288.804 42.9515 289.061 47.8902 286.241 52.6267C279.226 64.4019 261.716 63.4242 255.632 51.3354C253.131 46.3678 253.716 40.4509 253.716 35.0659V6.14231C253.113 6.16193 252.365 6.10615 252.053 6.74092C251.627 7.61069 251.897 9.07056 251.897 10.016V17.5051V37.1319C251.897 42.7952 251.736 48.2935 254.576 53.4014C261.862 66.494 281.721 65.6883 288.476 52.6267C291.237 47.2905 290.623 41.3878 290.623 35.5824V6.40055ZM255.172 6.4127C254.28 7.07355 254.756 9.80476 254.756 10.7907V23.9613V38.9396C254.756 42.115 254.475 45.4105 255.39 48.4947C258.314 58.3499 269.82 62.9586 278.927 58.4315C287.884 53.9791 288.024 45.0056 288.024 36.3571V20.8624V9.49952C288.024 8.75706 288.385 5.68548 286.803 6.31327C285.843 6.69264 286.205 8.70463 286.205 9.49952V19.8294V37.1319C286.205 40.6753 286.537 44.5619 285.402 47.9782C283.66 53.2261 278.506 58.1534 272.689 58.3042C270.831 58.3525 269.027 58.3386 267.231 57.8141C256.814 54.7743 256.575 44.9709 256.575 36.0989V21.1206V9.49952C256.575 8.86785 256.794 5.2103 255.172 6.4127ZM285.165 6.14231C284.562 6.16194 283.814 6.10616 283.502 6.74092C283.047 7.66906 283.346 9.26348 283.346 10.2743V18.2799V38.4231C283.346 44.3672 283.382 49.9006 277.888 53.6844C271.762 57.9032 263.024 55.0294 260.237 48.2365C258.855 44.8648 259.174 40.9537 259.174 37.3901V19.3129V9.24127C259.174 8.46343 259.53 6.09144 258.158 6.26265C257.111 6.39359 257.355 8.0035 257.355 8.72478V16.7304V37.6484C257.355 42.0502 257.051 46.5739 259.255 50.5607C264.523 60.0918 279.153 59.6277 283.834 49.786C285.95 45.3351 285.165 39.8497 285.165 35.0659V6.14231ZM282.566 6.40056C281.992 6.31198 281.233 6.09789 280.903 6.7448C280.469 7.59934 280.747 9.08218 280.747 10.016V17.5052V39.7143C280.747 44.4382 280.365 49.0747 275.808 51.7608C270.774 54.7293 264.258 51.7879 262.488 46.4288C261.495 43.4248 262.033 39.7435 262.033 36.6154V17.7634V8.98302C262.033 8.20957 262.332 6.16529 261.017 6.28331C259.967 6.37783 260.214 8.02002 260.214 8.72478V16.2139V37.9066C260.214 41.5639 259.668 45.6695 261.487 49.0112C265.805 56.9391 278.259 56.5605 281.667 47.9782C283.335 43.7714 282.566 38.4642 282.566 34.0329V6.40056ZM302.059 6.91705V65.539L303.619 65.7972L303.878 59.3411V47.2035V6.91705H302.059ZM304.918 6.91705V47.2035V59.3411L305.178 65.7972C307.184 65.5336 306.737 63.8209 306.737 62.1818V51.8519V6.91705H304.918ZM307.777 6.91705V47.2035V59.3411L308.037 65.7972H309.336L309.596 59.3411V47.2035V6.91705H307.777ZM310.636 6.91705V47.2035V59.3411L310.896 65.7972C312.822 65.5442 312.455 64.0422 312.455 62.44V53.1432V17.7634C312.455 15.2876 313.789 7.01983 310.636 6.91705ZM313.235 65.539C316.104 65.8078 315.314 62.6815 315.314 60.6323C315.314 55.4072 315.028 50.0935 315.314 44.8793C320.297 44.8793 325.37 44.9152 329.869 42.4745C339.421 37.2915 342.605 24.4365 336.533 15.4392C332.554 9.5429 326.179 6.91757 319.213 6.91705C317.89 6.91705 314.724 6.33935 313.651 7.18253C312.85 7.81265 313.235 9.89308 313.235 10.7907V21.6371V65.539ZM179.902 7.17529V47.2035V59.3411L180.162 65.7972C182.153 65.4623 181.722 63.8418 181.722 62.1818V52.1102V7.17529H179.902ZM182.501 7.17529V52.1102V62.6983C182.501 63.4937 182.145 65.7794 183.518 65.6562C184.713 65.5488 184.321 63.2264 184.321 62.44V51.8519V7.17529H182.501ZM185.36 7.17529V65.539C187.635 65.8383 187.18 63.8772 187.18 62.1818V52.1102V7.17529H185.36ZM188.219 7.17529V47.2035V59.3411L188.479 65.7972H189.779L190.039 59.3411V47.2035V7.17529H188.219ZM191.078 7.17529V65.7972H192.638L192.898 59.3411V47.2035V7.17529H191.078ZM201.475 7.17529V52.1102V62.1818C201.475 63.8418 201.043 65.4623 203.034 65.7972L203.294 59.3411V47.2035V7.17529H201.475ZM204.334 7.17529V47.2035V59.3411L204.594 65.7972H205.893L206.153 59.3411V47.2035V7.17529H204.334ZM207.193 7.17529V47.2035V59.3411L207.453 65.7972H208.752L209.012 59.3411V47.2035V7.17529H207.193ZM210.052 7.17529V47.2035V59.3411L210.312 65.7972C212.303 65.4623 211.871 63.8418 211.871 62.1818V52.1102V7.17529H210.052ZM212.911 7.17529V47.2035V59.3411L213.171 65.7972C215.599 65.478 214.73 61.9902 214.73 60.1158V41.5221H214.99C216.835 47.8855 220.814 54.0597 223.531 60.1158C224.529 62.3391 225.236 65.546 227.985 65.7972L224.716 58.0498L214.981 37.1319L214.73 31.4505V19.8294C217.143 19.8294 220.289 19.2976 222.527 20.3242C227.936 22.8054 226.792 28.6759 222.787 31.7087C226.228 40.5247 230.966 48.855 234.743 57.5333C235.91 60.2152 237.144 65.5274 240.461 65.539L229.805 42.0386C232.136 41.2698 233.903 39.2787 235.354 37.3901C241.041 29.9754 240.118 19.2573 233.628 12.6424C227.866 6.76623 220.506 7.17529 212.911 7.17529ZM136.758 7.43354V9.24126H173.145V7.43354H136.758ZM104.269 50.0442L102.45 50.5607C105.061 61.3838 122.196 58.3107 121.789 47.4617C121.62 42.9843 118.832 39.0951 114.406 37.8521C112.19 37.2297 109.901 37.6471 107.648 36.8504C103.117 35.2487 99.4796 31.2754 98.5759 26.5438C96.8397 17.4525 105.186 8.99722 114.406 10.6526C118.741 11.4307 122.259 14.5035 124.282 18.2799L126.101 17.7634C120.586 2.99583 98.441 7.67215 96.5471 22.1536C95.6249 29.2053 100.09 36.3228 106.868 38.5894C111.826 40.2471 118.151 39.0083 119.687 45.654C121.888 55.182 107.131 59.6391 104.269 50.0442ZM315.054 42.0386C319.806 42.0386 324.578 42.3446 328.83 39.8099C338.285 34.1737 339.392 21.2551 331.429 13.9129C328.874 11.5588 325.323 9.922 321.812 9.76782C320.032 9.68983 316.188 10.5436 315.054 8.98301C316.617 8.52411 318.371 8.72425 319.993 8.72477C335.096 8.73045 344.006 27.2033 332.726 38.1545C329.09 41.684 324.648 42.8133 319.733 42.8133C318.34 42.8133 315.897 43.3277 315.054 42.0386ZM228.505 39.7143C238.132 34.2109 238.79 20.3319 230.325 13.4941C225.696 9.75543 220.375 9.75775 214.73 9.75775V8.98301C219.03 8.98301 223.152 8.69739 227.206 10.3943C234.824 13.5832 238.857 22.6019 236.781 30.4175C235.957 33.5237 234.197 36.2686 231.861 38.4631C231 39.2712 229.516 41.0451 228.505 39.7143ZM136.758 10.2742V12.082H173.145C173.107 8.90218 167.245 10.102 164.741 10.102C155.681 10.102 145.707 8.94428 136.758 10.2742ZM121.943 19.5711L123.502 18.7964C120.127 10.7949 109.128 9.04474 102.98 14.9467C100.241 17.5762 99.2881 21.0754 99.332 24.736C99.3946 29.9839 103.227 34.5553 108.168 36.1637C110.108 36.7954 112.164 36.5353 114.146 37.0035C118.073 37.9317 121.327 40.9743 122.339 44.8793C124.549 53.4089 115.436 60.9722 107.388 57.3007C105.503 56.4404 104.041 55.0578 102.838 53.4014C102.435 52.8462 101.969 51.5053 101.131 51.5296C99.5994 51.5738 100.631 53.5501 101.011 54.1761C107.879 65.4835 125.421 59.2125 124.519 46.4287C124.176 41.5737 120.813 37.2411 116.225 35.6056C114.163 34.8707 112.07 35.1129 109.987 34.6739C105.714 33.7736 102.407 30.4526 101.348 26.2855C99.7003 19.8053 105.633 12.8169 112.326 13.1689C116.709 13.3993 119.615 16.1434 121.943 19.5711ZM227.725 38.1649L227.466 37.1319C235.307 32.2577 235.606 20.8445 228.245 15.3772C224.074 12.2785 219.677 12.5985 214.73 12.5985V11.5655C220.173 11.5655 225.449 11.4526 229.805 15.2556C236.547 21.1454 236.191 33.871 227.725 38.1649ZM315.054 40.2308C315.463 38.8004 317.968 39.4977 319.213 39.4512C322.792 39.3182 326.262 38.6276 329.09 36.2853C336.162 30.427 335.574 19.5412 327.79 14.5366C323.967 12.0791 319.668 12.3402 315.314 12.3402V11.5655C320.396 11.5655 325.362 11.2197 329.609 14.54C337.711 20.875 336.44 33.6554 327.53 38.5484C323.691 40.6569 319.273 40.2308 315.054 40.2308ZM173.145 14.9227V12.8567H145.335C143.169 12.8567 141.003 12.842 138.837 12.8569C138.05 12.8623 136.835 12.7993 136.835 13.8896C136.835 14.9799 138.05 14.9169 138.837 14.9224C141.003 14.9373 143.169 14.9225 145.335 14.9225L173.145 14.9227ZM99.0711 52.3683L97.5116 52.8848C98.1297 56.3282 101.278 59.368 104.269 60.9467C113.121 65.6189 125.035 61.0885 127.021 50.8188C128.482 43.269 124.429 35.5327 117.005 32.9221C112.073 31.1879 106.195 32.6721 104.21 26.2854C102.554 20.9552 107.248 15.4044 112.846 16.0005C115.685 16.3026 117.876 18.3084 119.344 20.604L120.903 20.0875C119.815 15.3734 113.773 13.341 109.467 14.3802C105.053 15.4457 101.584 19.8992 101.975 24.4777C102.33 28.63 105 32.5001 109.207 33.578C111.428 34.1469 113.781 33.8011 115.965 34.5725C120.394 36.1365 123.963 39.7852 125.088 44.3626C127.129 52.6694 119.959 61.9603 111.027 61.1048C105.268 60.5534 101.838 57.0789 99.0711 52.3683ZM315.054 36.6154C318.683 36.6154 322.418 37.0459 325.711 35.2433C332.697 31.4205 332.993 22.5317 327.27 17.5529C325.18 15.7344 322.691 15.1812 319.993 15.1809C318.514 15.1809 316.003 15.715 315.054 14.4062C319.013 13.2433 324.874 14.1849 328.05 16.8146C333.391 21.2345 333.864 29.8209 328.57 34.5019C325.578 37.1461 322.475 37.3418 318.693 37.4332C317.425 37.4637 315.574 38.0809 315.054 36.6154ZM226.426 35.5824C226.886 32.8481 230.156 30.9606 230.725 27.835C231.681 22.5577 228.162 17.2234 223.047 15.7083C220.376 14.9173 217.481 15.1809 214.73 15.1809V14.4062C219.457 14.4062 224.19 13.9003 227.983 17.2944C232.908 21.7063 233.722 32.774 226.426 35.5824ZM136.758 15.6974V17.5051H173.145V15.6974H136.758ZM96.7319 53.6596L94.9125 54.1761C100.121 72.1408 128.742 67.3501 129.977 49.5277C130.549 41.2682 126.482 34.1837 118.824 30.7563C114.775 28.9439 108.011 30.5569 106.746 24.9943C105.888 21.219 110.024 17.7887 113.626 19.0167C115.674 19.715 116.224 21.9426 118.564 21.1206C114.706 13.0646 102.07 18.0493 105.234 26.5438C107.219 31.8742 112.697 30.5246 117.005 32.0795C124.27 34.7018 128.908 41.8632 128.136 49.5277C126.468 66.0927 102.931 68.4499 96.7319 53.6596ZM225.386 32.9999L225.126 32.7417C226.124 30.6024 227.767 29.2876 228.131 26.802C229.321 18.6657 220.326 18.0216 214.73 18.0216V16.9887C218.454 16.9887 222.51 16.5205 225.646 18.933C229.703 22.0534 230.805 30.4673 225.386 32.9999ZM315.314 34.8077V34.0329C318.319 33.784 321.344 34.3568 324.151 32.9292C329.251 30.3359 330.262 23.365 325.7 19.7077C322.381 17.0465 318.714 18.58 315.054 17.5051C316.253 16.6028 318.28 16.9887 319.733 16.9887C322.948 16.9888 325.578 17.7952 327.704 20.3461C331.249 24.5984 329.685 31.5264 324.671 33.9053C321.815 35.2604 318.387 34.8077 315.314 34.8077ZM136.758 18.5381V20.3459H148.454V65.539L150.013 65.7972C151.271 61.569 150.273 55.7499 150.273 51.3354V20.3459H151.313V65.539C151.886 65.6144 152.643 65.797 152.975 65.165C154.147 62.9328 153.132 57.7345 153.132 55.2091V20.3459H154.172V55.2091V63.473C154.173 64.1873 154.016 65.8233 155.188 65.6769C156.236 65.546 155.991 63.936 155.991 63.2148V54.9509V20.3459H156.771V55.2091V63.2148C156.771 63.9673 156.529 65.6402 157.7 65.6402C158.837 65.6402 158.59 63.9381 158.59 63.2148V54.9509V20.3459H159.63V65.539L161.189 65.7972C162.447 61.569 161.449 55.7499 161.449 51.3354V20.3459H173.145V18.5381H136.758ZM315.686 19.7268C316.481 19.3258 317.825 19.5711 318.693 19.5711C320.931 19.5711 323.106 19.7039 324.882 21.2572C328.058 24.0339 327.265 29.3785 323.631 31.3428C321.804 32.3308 319.4 31.9711 317.394 31.9669C316.778 31.9656 315.754 32.1175 315.325 31.553C314.631 30.6375 315.314 27.2253 315.314 26.0273C315.314 24.7676 314.415 20.3681 315.686 19.7268ZM220.448 32.9999C220.987 36.0028 222.992 39.0158 224.266 41.7803C226.81 47.2998 229.415 52.7909 231.964 58.3081C233.051 60.6576 234.202 65.4672 237.082 65.7972L237.342 65.539L231.445 52.6267L222.007 32.4834L220.448 32.9999ZM234.223 65.539L230.288 56.7586L219.668 33.7747C216.618 34.5776 219.915 39.116 220.788 41.0056C223.735 47.3812 226.608 53.8293 229.74 60.1158C230.688 62.017 231.484 66.2195 234.223 65.539ZM215.25 35.5824C218.505 43.4659 222.586 51.0142 226.015 58.8246C227.013 61.0948 228.146 65.8158 231.104 65.539C228.903 57.537 223.854 49.5845 220.368 42.0386C219.366 39.8708 218.168 34.5569 215.25 35.5824Z" fill="#FF670E"/>
<path d="M79.7558 0.0649414L80.5905 71.823Z" fill="#F9F9F9"/>
<path d="M79.7558 0.0649414L80.5905 71.823" stroke="#FF670E" stroke-width="4"/>
</svg>
