<?xml version="1.0" encoding="UTF-8" standalone="no"?>
<!-- Created with Inkscape (http://www.inkscape.org/) -->

<svg
   width="1920"
   height="1080"
   viewBox="0 0 1920 1080"
   version="1.1"
   id="svg5"
   xml:space="preserve"
   inkscape:export-filename="Food Recipe(RBMP).svg"
   inkscape:export-xdpi="96"
   inkscape:export-ydpi="96"
   xmlns:inkscape="http://www.inkscape.org/namespaces/inkscape"
   xmlns:sodipodi="http://sodipodi.sourceforge.net/DTD/sodipodi-0.dtd"
   xmlns="http://www.w3.org/2000/svg"
   xmlns:svg="http://www.w3.org/2000/svg"><sodipodi:namedview
     id="namedview7"
     pagecolor="#ffffff"
     bordercolor="#000000"
     borderopacity="0.25"
     inkscape:showpageshadow="2"
     inkscape:pageopacity="0.0"
     inkscape:pagecheckerboard="0"
     inkscape:deskcolor="#d1d1d1"
     inkscape:document-units="px"
     showgrid="false" /><defs
     id="defs2" /><g
     inkscape:label="Layer 1"
     inkscape:groupmode="layer"
     id="layer1"><path
       style="fill:#eb8d63;stroke:none;stroke-width:1.05234"
       d="m 381.79947,338.18256 c -9.04591,1.41277 -17.81507,4.55652 -25.25616,9.98449 -44.3477,32.35418 -15.87139,109.36336 39.98891,100.63946 9.11958,-1.42487 17.79507,-4.26093 25.25615,-9.80991 45.14222,-33.5749 17.71719,-109.8266 -39.9889,-100.81404 m -238.88135,128.9757 v 1.05234 c 29.77595,-6.88861 66.20585,-8.48607 83.13483,23.15148 h -77.87314 c -2.67715,25.2372 31.18083,31.24501 49.45997,23.93336 7.60211,-3.04126 10.80963,-9.43423 17.23206,-13.3805 3.49062,-2.14467 9.34478,-1.08181 13.2858,-1.08181 -0.0547,19.98604 -13.93509,35.85638 -31.5702,44.19827 v 1.05234 c 22.13491,-5.12069 40.97601,-21.4751 41.04125,-45.25061 h 64.19272 c -4.91863,4.91864 -21.88129,15.85981 -21.88129,23.15148 0,6.35192 13.44469,15.7672 17.67194,19.99445 18.58642,18.58643 37.47066,41.70949 58.93102,56.82635 l 45.25061,-99.97228 8.41872,2.10468 c -9.67837,24.94467 -21.80448,49.32948 -32.94771,73.66379 -4.94494,10.80016 -11.86302,22.13912 -14.818,33.67486 -5.05333,19.72401 -0.64192,45.91779 -0.64192,66.29741 h 84.18718 V 462.9489 h -55.77401 l -21.41616,1.08181 -7.32218,14.70329 -18.61695,43.14593 c -10.57811,-7.45162 -21.0973,-26.93885 -33.76958,-30.18742 -15.49149,-3.97153 -36.5025,-0.33043 -52.52227,-0.33043 -5.37009,0 -13.72988,1.57114 -18.70534,-0.63456 -6.2751,-2.78239 -11.75043,-15.54411 -18.12655,-20.24808 -22.08335,-16.29232 -53.30206,-17.04579 -76.8208,-3.32118 m -2.10468,1.05234 1.05233,1.05234 -1.05233,-1.05234 m -2.10469,1.05234 1.05235,1.05234 -1.05235,-1.05234 m 2.10469,31.57019 c -0.39358,9.01856 -9.07117,19.8787 -7.01596,28.3553 1.71217,7.0633 12.9501,6.40769 16.15237,0.97025 4.81446,-8.17562 -3.58112,-23.39245 -9.13641,-29.32555 m -27.36084,47.35529 c 0,33.78432 25.13829,58.68268 56.82635,67.34975 -5.20277,-18.20022 -5.79734,-31.95851 11.57574,-44.19827 -10.34661,19.73558 0.52932,43.28378 22.09913,48.40762 v -1.05234 c -23.9039,-20.8921 -1.64165,-47.74044 23.15147,-52.61699 -11.34527,10.12141 -17.66563,24.00072 -11.22004,38.93658 1.77108,4.10412 4.49138,9.46158 9.11958,10.84541 17.52355,5.2396 21.04258,-22.36011 21.04258,-32.94454 h 1.05234 l 3.15702,24.2038 c 22.99994,-12.29237 36.82873,-32.77301 36.83189,-58.93102 H 113.4526 m 49.45997,73.66378 v 13.68042 h 86.29186 V 621.8522 h -86.29186 m -47.35529,22.09914 v 32.62253 h 181.00243 l -1.05233,-32.62253 c -21.24148,5.05755 -47.62153,1.05233 -69.45443,1.05233 h -70.50676 c -13.12057,0 -27.05881,1.34805 -39.98891,-1.05233 z"
       id="path905"
       sodipodi:nodetypes="ccccccccccccccccsscccccccccccccscccccccccccccccccccssccccccccccccccssc" /><path
       d="m 604.15187,587.70672 -9.57031,2.73437 c 11.72089,48.77847 87.34271,24.61072 71.43549,-23.24217 -9.90663,-29.8033 -40.03532,-21.7533 -63.23237,-30.39119 -39.03727,-14.53592 -61.78452,-53.03179 -57.1853,-94.02277 5.74491,-51.20523 62.69643,-84.71497 110.50557,-70.03549 24.42889,7.50038 40.7449,25.47341 53.32028,46.79332 l 8.20311,-2.73437 c -4.14394,-23.23397 -29.87712,-42.82165 -50.5859,-50.8443 -54.87749,-21.25975 -117.00107,10.81581 -130.03583,68.61772 -10.12812,44.91207 14.87499,92.67063 57.57495,109.91632 19.45096,7.85585 48.85231,1.60234 60.27105,22.70213 18.24784,33.71481 -39.39684,58.56479 -50.70074,20.50643 M 1576.2214,360.75377 v 149.02332 c 0,36.00212 3.377,73.31264 -16.5019,105.27335 -40.0585,64.45874 -131.4413,66.61479 -176.408,6.83594 -33.127,-44.02614 -20.3711,-113.62413 -20.3711,-165.42956 v -73.82806 c 0,-3.45215 1.7773,-27.27537 -7.3828,-20.44354 -4.9766,3.71464 -2.1875,20.30135 -2.1875,25.91228 v 79.29681 c 0,42.36911 -7.9024,93.70286 7.1504,133.98427 26.5234,71.00346 116.826,96.10227 177.4196,52.30172 66.0488,-47.74626 47.8516,-144.09188 47.8516,-214.9969 v -58.78902 c 0,-9.45409 2.1738,-18.48983 -9.5704,-19.14061 m -5.4687,1.36719 c -3.0215,-0.39922 -7,-1.36582 -8.75,1.97969 -2.2969,4.42011 -0.8203,12.30604 -0.8203,17.16092 v 38.28122 108.00772 c 0,28.07518 1.3535,54.22125 -13.4805,79.29682 -36.9003,62.33959 -129.0077,57.16343 -161.0135,-6.83594 -13.1523,-26.29919 -10.0762,-57.62417 -10.0762,-86.13274 V 360.75377 c -3.1718,0.10391 -7.1093,-0.1914 -8.75,3.16914 -2.242,4.60469 -0.8203,12.33339 -0.8203,17.33866 v 39.64841 103.90616 c 0,29.9824 -0.8476,59.09116 14.0957,86.13274 38.3224,69.31362 142.789,65.048 178.3222,-4.10155 14.5196,-28.25018 11.2929,-59.49996 11.2929,-90.23431 V 362.12096 m -186.4841,0.0643 c -4.6895,3.49863 -2.1875,17.95799 -2.1875,23.17791 v 69.72651 79.29681 c 0,16.81092 -1.4766,34.25759 3.3359,50.58589 15.3809,52.17457 75.9062,76.57338 123.8124,52.6066 47.1133,-23.57166 47.8515,-71.07865 47.8515,-116.86436 v -82.03118 -60.1562 c 0,-3.93066 1.9004,-20.19198 -6.4257,-16.86835 -5.0449,2.0084 -3.1446,12.66015 -3.1446,16.86835 v 54.68745 91.60149 c 0,18.75917 1.75,39.33532 -4.2246,57.42183 -9.1602,27.78259 -36.2715,53.86851 -66.8692,54.66695 -9.7753,0.25566 -19.2636,0.18183 -28.7109,-2.59492 -54.7968,-16.09315 -56.0546,-67.99292 -56.0546,-114.9626 v -79.29682 -61.52338 c 0,-3.34414 1.1484,-22.7076 -7.3828,-16.34198 m 157.7733,-1.43145 c -3.1719,0.10391 -7.1094,-0.1914 -8.75,3.16914 -2.3925,4.91367 -0.8203,13.35468 -0.8203,18.70585 v 42.38277 106.64054 c 0,31.46853 0.1914,60.76324 -28.7109,80.79525 -32.2246,22.33436 -78.1894,7.12031 -92.8457,-28.84216 -7.2734,-17.84999 -5.5917,-38.55603 -5.5917,-57.42183 v -95.70305 -53.32027 c 0,-4.11796 1.873,-16.67557 -5.3457,-15.76913 -5.5098,0.69317 -4.2247,9.21621 -4.2247,13.03476 v 42.38278 110.74209 c 0,23.3037 -1.5996,47.2527 9.9942,68.35932 27.7129,50.45875 104.6718,48.00192 129.2948,-4.10156 11.1289,-23.56345 7,-52.60386 7,-77.92962 V 360.75381 m -13.6719,1.36719 c -3.0215,-0.46894 -7.0136,-1.60234 -8.75,1.82246 -2.2832,4.52402 -0.8203,12.3744 -0.8203,17.31815 v 39.64841 117.57803 c 0,25.00857 -2.0097,49.55503 -25.9765,63.77514 -26.4824,15.71581 -60.7578,0.14355 -70.0683,-28.2283 -5.2227,-15.90311 -2.3926,-35.39235 -2.3926,-51.95308 V 422.2772 375.79286 c 0,-4.09472 1.5724,-14.91737 -5.3457,-14.29256 -5.5234,0.50039 -4.2246,9.19433 -4.2246,12.92538 v 39.6484 114.84366 c 0,19.36209 -2.8711,41.09762 6.6992,58.78902 22.709,41.97125 88.2246,39.96696 106.1484,-5.46875 8.7773,-22.27147 4.7304,-50.36851 4.7304,-73.82807 V 362.121 m 102.539,2.73437 v 310.35132 l 8.2031,1.36718 1.3672,-34.17966 V 578.13645 364.85537 h -9.5703 m 15.0391,0 v 213.28108 64.25776 l 1.3671,34.17966 c 10.5547,-1.3959 8.2032,-10.46308 8.2032,-19.14061 V 602.74581 364.85537 h -9.5703 m 15.039,0 v 213.28108 64.25776 l 1.3672,34.17966 h 6.8359 l 1.3672,-34.17966 V 578.13645 364.85537 h -9.5703 m 15.0391,0 v 213.28108 64.25776 l 1.3671,34.17966 c 10.1309,-1.33984 8.2032,-9.2914 8.2032,-17.77342 V 609.58174 422.2772 c 0,-13.10721 7.0136,-56.87769 -9.5703,-57.42183 m 13.6718,310.35132 c 15.0938,1.42324 10.9375,-15.12792 10.9375,-25.97655 0,-27.66228 -1.5039,-55.79351 0,-83.39837 26.209,0 52.8965,0.19004 76.5624,-12.73124 50.2441,-27.43943 66.9922,-95.49523 35.0547,-143.12801 -20.9316,-31.2156 -54.4687,-45.11441 -91.1093,-45.11715 -6.959,0 -23.6113,-3.05839 -29.2578,1.40547 -4.2109,3.33594 -2.1875,14.34999 -2.1875,19.10233 V 442.785 675.20669 M 988.33125,366.22252 v 211.91389 64.25776 l 1.3672,34.17966 c 10.47405,-1.77324 8.2031,-10.35233 8.2031,-19.14061 V 604.11295 366.22252 h -9.5703 m 13.67185,0 v 237.89043 56.05464 c 0,4.21094 -1.8744,16.31191 5.347,15.65976 6.2877,-0.56875 4.2233,-12.86386 4.2233,-17.02694 V 602.74577 366.22252 h -9.5703 m 15.039,0 v 308.98413 c 11.9657,1.58456 9.5704,-8.79785 9.5704,-17.77343 V 604.11295 366.22252 h -9.5704 m 15.0392,0 v 211.91389 64.25776 l 1.3672,34.17966 h 6.8359 l 1.3672,-34.17966 V 578.13641 366.22252 h -9.5703 m 15.039,0 v 310.35131 h 8.2031 l 1.3672,-34.17966 V 578.13641 366.22252 h -9.5703 m 54.6875,0 v 237.89043 53.32027 c 0,8.78828 -2.2709,17.36737 8.2031,19.14061 l 1.3672,-34.17966 V 578.13641 366.22252 h -9.5703 m 15.039,0 v 211.91389 64.25776 l 1.3672,34.17966 h 6.8359 l 1.3672,-34.17966 V 578.13641 366.22252 h -9.5703 m 15.0391,0 v 211.91389 64.25776 l 1.3672,34.17966 h 6.8359 l 1.3672,-34.17966 V 578.13641 366.22252 h -9.5703 m 15.039,0 v 211.91389 64.25776 l 1.3672,34.17966 c 10.474,-1.77324 8.2031,-10.35233 8.2031,-19.14061 V 604.11295 366.22252 h -9.5703 m 15.0391,0 v 211.91389 64.25776 l 1.3672,34.17966 c 12.7763,-1.68984 8.2031,-20.15506 8.2031,-30.0781 v -98.43742 h 1.3672 c 9.7043,33.68884 30.6386,66.37553 44.9271,98.43742 5.2485,11.77011 8.9673,28.74783 23.4321,30.0781 l -17.1992,-41.01559 -51.2065,-110.7421 -1.3207,-30.0781 v -61.52339 c 12.6943,0 29.2414,-2.81503 41.0156,2.61953 28.451,13.13593 22.4354,44.21481 1.3672,60.27105 18.1014,46.67301 43.0252,90.77434 62.8904,136.71864 6.1387,14.19823 12.6328,42.32125 30.0781,42.38278 L 1250.831,550.79268 c 12.2637,-4.07011 21.5605,-14.61112 29.1894,-24.60935 29.9141,-39.25466 25.0605,-95.99699 -9.0781,-131.01747 -30.3105,-31.10896 -69.025,-28.94334 -108.9783,-28.94334 m -400.58569,1.36719 v 9.5703 h 191.40614 v -9.5703 H 761.37831 M 590.48,593.17546 l -9.5703,2.73437 c 13.73612,57.29879 103.87199,41.02927 101.72688,-16.40623 -0.88594,-23.70428 -15.55039,-44.29411 -38.83631,-50.87438 -11.65526,-3.29491 -23.6947,-1.08554 -35.54684,-5.30331 -23.8328,-8.47929 -42.96794,-29.51482 -47.72164,-54.56441 -9.13281,-48.13043 34.77165,-92.89348 83.26848,-84.12982 22.80331,4.11934 41.30955,20.38749 51.95309,40.37985 l 9.57031,-2.73437 c -29.0117,-78.18119 -145.50145,-53.42417 -155.46414,23.24217 -4.85078,37.33239 18.63612,75.01342 54.29234,87.01321 26.07771,8.77597 59.35229,2.21758 67.42827,37.40075 11.58007,50.44234 -66.04605,74.03861 -81.10014,23.24217 m 1108.7882,-42.38278 c 24.9922,0 50.0937,1.62012 72.4609,-11.79882 49.7382,-29.83884 55.5625,-98.23097 13.6719,-137.10145 -13.4395,-12.46327 -32.1152,-21.1285 -50.5859,-21.94471 -9.3653,-0.41289 -29.5859,4.10703 -35.5469,-4.15488 8.2168,-2.42949 17.4453,-1.36992 25.9766,-1.36718 79.4472,0.0301 126.3143,97.82765 66.9784,155.80456 -19.1269,18.68534 -42.4921,24.66404 -68.3457,24.66404 -7.328,0 -20.1796,2.72344 -24.6094,-4.10156 m -455.273,-12.30467 c 50.6405,-29.13611 54.0995,-102.61281 9.5703,-138.81317 -24.3496,-19.79276 -52.3386,-19.78046 -82.0311,-19.78046 v -4.10156 c 22.6173,0 44.3023,-1.5121 65.6248,7.47168 40.0724,16.88202 61.291,64.62827 50.3672,106.0048 -4.334,16.44451 -13.5899,30.97634 -25.8809,42.59469 -4.5254,4.27792 -12.332,13.66913 -17.6503,6.62402 M 761.37831,382.62876 v 9.5703 h 191.40614 c -0.1997,-16.83417 -31.0325,-10.48222 -44.2053,-10.48222 -47.65877,0 -100.12315,-6.12909 -147.20084,0.91192 m -77.92963,49.21871 8.20312,-4.10156 C 673.89889,385.385 616.03682,376.11958 583.69876,407.36526 c -14.40604,13.92069 -19.42088,32.44607 -19.18983,51.82593 0.32949,27.7826 20.48866,51.98453 46.47887,60.49937 10.20741,3.34414 21.02323,1.96738 31.44529,4.44609 20.65682,4.91367 37.774,21.02186 43.09645,41.69508 11.62519,45.1568 -36.30974,85.19759 -78.6433,65.7603 -9.91757,-4.5541 -17.60799,-11.87401 -23.93533,-20.64315 -2.12051,-2.93945 -4.57051,-10.03788 -8.97695,-9.90936 -8.05819,0.23379 -2.6332,10.69686 -0.633,14.01092 36.12653,59.86226 128.40068,26.66287 123.65791,-41.01559 -1.80195,-25.7031 -19.49335,-48.64039 -43.62829,-57.29878 -10.84863,-3.89101 -21.85584,-2.60859 -32.81247,-4.93281 -22.47792,-4.76601 -39.87263,-22.34803 -45.44528,-44.40895 -8.6666,-34.30681 22.54217,-71.30424 57.74995,-69.44076 23.05487,1.21953 38.34275,15.74725 50.5859,33.89392 m 556.44492,98.43742 -1.3672,-5.46875 c 41.248,-25.80427 42.8203,-86.22708 4.1016,-115.17178 -21.942,-16.40487 -45.0693,-14.71093 -71.0937,-14.71093 v -5.46874 c 28.6316,0 56.3827,-0.59746 79.2968,19.53572 35.4648,31.18142 33.5918,98.55227 -10.9375,121.28448 m 459.3746,10.93749 c 2.1465,-7.57285 15.3262,-3.88144 21.875,-4.12754 18.8262,-0.7041 37.0781,-4.35995 51.9531,-16.76034 37.2011,-31.01462 34.1113,-88.64563 -6.8359,-115.14033 -20.1114,-13.01015 -42.7246,-11.62792 -65.625,-11.62792 v -4.10156 c 26.7285,0 52.8554,-1.83066 75.1953,15.74725 42.6152,33.53845 35.9296,101.19914 -10.9375,127.10322 -20.1934,11.16308 -43.4355,8.90722 -65.625,8.90722 M 952.78445,407.23811 V 396.30062 H 806.49546 c -11.39276,0 -22.7869,-0.0779 -34.17966,0.001 -4.13847,0.0287 -10.5328,-0.30489 -10.5328,5.46738 0,5.77226 6.39433,5.43866 10.5328,5.46737 11.3914,0.0793 22.7869,10e-4 34.17966,10e-4 h 146.28899 m -389.64817,198.24203 -8.20312,2.73437 c 3.25117,18.23007 19.81326,34.32322 35.54684,42.68083 46.56501,24.73513 109.23273,0.75058 119.68214,-53.61832 7.68222,-39.96969 -13.63632,-80.9265 -52.69,-94.74738 -25.941,-9.18066 -56.86402,-1.32344 -67.30112,-35.13533 -8.71171,-28.21872 15.97831,-57.60503 45.42614,-54.44956 14.93377,1.59961 26.45642,12.21854 34.17966,24.37146 l 8.20312,-2.73437 c -5.72715,-24.95662 -37.50876,-35.71638 -60.15621,-30.21482 -23.22029,5.64101 -41.46813,29.21814 -39.41051,53.45699 1.86484,21.98299 15.90995,42.47164 38.04333,48.17828 11.68124,3.01191 24.05838,1.18125 35.54684,5.26503 23.2955,8.27969 42.07243,27.59666 47.98825,51.83004 10.73788,43.97692 -26.97732,93.16418 -73.96479,88.63469 -30.29275,-2.91894 -48.33414,-21.31306 -62.89057,-46.25191 M 1699.2682,522.08177 c 19.0859,0 38.7324,2.2791 56.0547,-7.26386 36.7499,-20.23846 38.3085,-67.29702 8.2031,-93.65501 -10.9922,-9.62772 -24.0898,-12.55624 -38.2812,-12.5576 -7.7793,0 -20.9863,2.82734 -25.9766,-4.10156 20.8223,-6.15644 51.6523,-1.17168 68.3593,12.75038 28.0957,23.39939 30.584,68.85697 2.7344,93.6386 -15.7363,13.99862 -32.0605,15.03494 -51.9531,15.51893 -6.6718,0.16133 -16.4062,3.4289 -19.1406,-4.32988 m -466.2105,-5.46875 c 2.4199,-14.47577 19.6191,-24.46853 22.6132,-41.01559 5.0313,-27.93845 -13.4804,-56.17906 -40.3867,-64.20034 -14.0492,-4.18769 -29.2769,-2.79179 -43.7499,-2.79179 v -4.10156 c 24.8664,0 49.7642,-2.67832 69.7128,15.29061 25.9082,23.35701 30.1875,81.95052 -8.1894,96.81867 M 761.37831,411.33967 v 9.57031 h 191.40614 v -9.57031 H 761.37831 m -210.54671,200.9764 -9.57031,2.73437 c 27.39842,95.10696 177.95026,69.74428 184.44849,-24.60935 3.01055,-43.72672 -18.38182,-81.23275 -58.66734,-99.37805 -21.29939,-9.59491 -56.87905,-1.05546 -63.53315,-30.50466 -4.51582,-19.9869 17.24022,-38.14723 36.19079,-31.64626 10.77206,3.69687 13.66776,15.49022 25.97518,11.13846 -20.29315,-42.64937 -86.76575,-16.25994 -70.12163,28.71092 10.44394,28.22009 39.25739,21.07518 61.91851,29.30701 38.21696,13.88241 62.61577,51.79585 58.55523,92.37258 -8.77324,87.6968 -132.58701,100.17648 -165.19577,21.87498 m 676.7573,-109.37491 -1.3672,-1.36719 c 5.25,-11.32577 13.8907,-18.28612 15.8047,-31.44528 6.2617,-43.07458 -41.0566,-46.48434 -70.4921,-46.48434 v -5.46875 c 19.5877,0 40.9226,-2.47871 57.4218,10.29355 21.3418,16.51971 27.1387,61.06401 -1.3672,74.47201 m 473.0465,9.5703 v -4.10156 c 15.8047,-1.31796 31.7187,1.71446 46.4843,-5.84335 26.8242,-13.72929 32.1426,-50.63375 8.1485,-69.99584 -17.459,-14.08886 -36.75,-5.9705 -56,-11.66073 6.3028,-4.77695 16.9668,-2.73438 24.6094,-2.73438 16.9121,0.001 30.748,4.26973 41.9316,17.77479 18.6484,22.51209 10.4179,59.1896 -15.9551,71.78412 -15.0254,7.17363 -33.0585,4.77695 -49.2187,4.77695 M 761.37831,426.37872 v 9.57031 h 61.52339 v 239.25762 l 8.20311,1.36718 C 837.722,654.18889 832.472,623.38208 832.472,600.01139 V 435.94903 h 5.46875 v 239.25762 c 3.01874,0.39921 6.99999,1.36581 8.74589,-1.97969 6.16194,-11.81796 0.82441,-39.33806 0.82441,-52.70777 V 435.94903 h 5.46873 v 184.57016 43.74996 c 0.01,3.78164 -0.8189,12.44277 5.3471,11.66757 5.5125,-0.69316 4.2218,-9.2162 4.2232,-13.03475 V 619.152 435.94903 h 4.1016 v 184.57016 42.38278 c 10e-4,3.98398 -1.2701,12.84061 4.889,12.84061 5.9815,0 4.6799,-9.01112 4.6813,-12.84061 V 619.152 435.94903 h 5.46867 v 239.25762 l 8.2031,1.36718 c 6.6172,-22.38494 1.3672,-53.19175 1.3672,-76.56244 V 435.94903 h 61.5235 v -9.57031 H 761.37831 m 941.21219,6.29316 c 4.1836,-2.12324 11.2519,-0.82441 15.8183,-0.82441 11.7715,0 23.2149,0.70273 32.5527,8.92636 16.7071,14.69998 12.5371,42.99527 -6.5761,53.39409 -9.6113,5.23086 -22.2579,3.32637 -32.8125,3.30449 -3.2402,-0.007 -8.6269,0.79707 -10.8829,-2.1916 -3.6504,-4.84667 -0.055,-22.91131 -0.055,-29.25368 0,-6.66914 -4.7304,-29.96053 1.9551,-33.35525 m -500.978,70.26928 c 2.8342,15.89764 13.3847,31.84861 20.0852,46.48434 13.3834,29.22087 27.0826,58.29136 40.4947,87.49993 5.7149,12.43866 11.7715,37.90114 26.9199,39.6484 l 1.3672,-1.36718 -31.0215,-68.35932 -49.6424,-106.64054 -8.2031,2.73437 m 72.4608,172.26549 -20.6992,-46.48434 -55.8632,-121.67959 c -16.0453,4.25058 1.2975,28.27751 5.8912,38.28122 15.4985,33.7531 30.6126,67.89037 47.0872,101.17179 4.9902,10.06523 9.1738,32.31345 23.584,28.71092 m -99.8045,-158.59363 c 17.1226,41.7361 38.5929,81.69759 56.6287,123.04678 5.25,12.01893 11.2109,37.01247 26.7695,35.54685 -11.5799,-42.36364 -38.1362,-84.46478 -56.477,-124.41397 -5.2677,-11.47616 -11.5691,-39.60875 -26.9212,-34.17966"
       style="fill:#eb8d63;stroke:none;stroke-width:1.36719"
       id="path1022" /><path
       style="fill:#f9f9f9;stroke:#eb8d63;stroke-width:9.75481;stroke-dasharray:none;stroke-opacity:1"
       d="m 493.18137,328.57945 4.39068,379.89527"
       id="path1037" /></g></svg>
